<svg width="54" height="40" viewBox="0 0 54 40" fill="none" xmlns="http://www.w3.org/2000/svg">
<path d="M24.1547 5.74995C23.738 5.77261 23.4773 5.83361 23.3798 5.92424C23.2823 6.01487 23.1227 6.09853 23.066 6.03753C23.0496 6.01445 23.0382 5.98833 23.0324 5.96076C23.0266 5.9332 23.0266 5.90476 23.0323 5.87718C23.0827 5.67397 23.2014 5.49342 23.3692 5.36477L24.0004 5.2846L23.9135 5.22359C23.9135 5.22359 23.9986 5.14342 24.1103 5.0249L24.6582 5.74995C24.5518 5.74995 24.3586 5.74995 24.1547 5.74995Z" fill="#009FD3"/>
<path d="M24.131 5.01801C24.326 4.80712 24.576 4.49514 24.553 4.23893C24.5016 3.67945 25.6612 3.56965 25.6736 3.56791L25.7675 3.55919L25.6966 3.49819C25.6452 3.45113 25.5672 3.35876 25.5814 3.30124C25.5814 3.27684 25.6133 3.25593 25.6629 3.24198C25.8899 3.1775 26.108 2.88469 26.186 2.7714L26.498 3.09907L27.0831 2.95789C27.0831 2.95789 27.342 2.71563 27.5353 2.52391C27.6115 2.46538 27.7063 2.43514 27.803 2.4385C27.967 2.43479 28.1308 2.45118 28.2906 2.4873L28.8225 2.94569L28.803 3.37619H28.8456C28.9821 3.37619 29.3775 3.4215 29.42 3.57488C29.4626 3.72826 29.3899 4.1849 29.4059 4.46899L27.858 5.22716L27.2871 5.50777L26.4378 5.12084L26.4165 5.14176C26.2964 5.22456 26.1516 5.26565 26.0051 5.25853C25.5654 5.2598 25.1268 5.2154 24.6966 5.12607L24.131 5.01801Z" fill="#009FD3"/>
<path d="M26.0261 5.57569C26.0291 5.55966 26.0365 5.54472 26.0474 5.53245C26.0583 5.52018 26.0724 5.51104 26.0882 5.50598C26.1817 5.47132 26.2807 5.45303 26.3807 5.45195C26.5991 5.4453 26.8177 5.45345 27.035 5.47635L27.2832 5.50423L25.5562 6.35303L25.519 6.3722C25.3491 6.31621 25.1822 6.25164 25.019 6.17874C25.0225 6.10498 25.0458 6.03345 25.0864 5.97133C25.1059 5.99359 25.1215 6.01893 25.1325 6.04628C25.1786 6.1404 25.2832 6.18397 25.4445 6.17525C25.7058 6.13875 25.9596 6.06168 26.1963 5.94693L26.2495 5.92253L26.207 5.88244C26.1502 5.8319 26.0119 5.67678 26.0261 5.57569Z" fill="#009FD3"/>
<path d="M23.5621 30.9456C23.4526 30.9475 23.3452 30.916 23.2546 30.8556C23.1639 30.7952 23.0945 30.7087 23.0557 30.6081C23.0169 30.5074 23.0107 30.3974 23.0378 30.2931C23.065 30.1888 23.1243 30.0953 23.2075 30.0254L27.5178 27.1775L23.7004 23.4598L24.6614 22.9875L29.2359 25.6489L35.0781 22.069L37.4647 20.6067L35.2519 18.4507L34.6562 17.8703L28.2359 11.615L30.5409 10.4839L36.5693 14.2625L38.2253 15.2978L42.4062 17.9122L51.7343 15.1409C53.0286 15.1392 53.7449 16.8002 52.658 17.7013L44.9895 23.1426L44.4576 28.2476L43.5144 37.1365L41.2094 38.2676L40.7307 33.7535L40.5533 32.0559L40.2572 29.2794L39.8459 25.3962L37.8335 26.1614L30.8193 28.8298L30.0781 34.1003L29.1189 34.5726L28.7075 30.6982L28.5551 29.2585L23.6738 30.9282C23.6372 30.9373 23.5998 30.9432 23.5621 30.9456Z" fill="#009FD3"/>
<path d="M42.6298 11.0834C41.7401 9.47171 40.6153 7.99669 39.2912 6.70516L39.1139 6.54133L40.3444 9.07203C40.5061 9.33519 40.6403 9.61373 40.7451 9.9034L39.7823 9.30036L33.7539 5.52173L30.8939 3.73002L29.8957 4.22152C30.073 3.95659 30.2503 3.65856 30.2078 3.58884L31.5305 3.30997L31.4755 3.25769C31.4755 3.25769 31.0854 2.8725 31.2557 2.58841C31.3018 2.50824 31.4454 2.45943 31.6688 2.44723C31.9306 2.43982 32.1925 2.45792 32.4507 2.50126L32.855 2.56227L32.472 2.42283C30.1043 1.55702 27.5846 1.16475 25.0606 1.26903C24.9678 1.27636 24.8778 1.3031 24.7964 1.34746C24.5606 1.51129 24.1333 2.15442 24.0872 2.21891C24.0411 2.2834 21.4276 4.4847 20.7698 4.51433C20.6856 4.5198 20.6012 4.51156 20.5198 4.48992L20.385 3.79276H20.346C20.346 3.79276 20.0765 3.82588 19.8868 3.83808C19.7556 3.83808 21.557 2.35312 21.5535 2.35312C21.5216 2.28485 21.4989 2.21278 21.4861 2.13874L21.4772 2.10214H21.4382C21.4382 2.10214 21.0623 2.15965 20.9063 2.17185C21.0053 2.0566 21.1198 1.95516 21.2467 1.87033L21.424 1.74484L21.2095 1.79713C19.6667 2.17148 18.1775 2.73416 16.7769 3.47206H16.768L16.6651 3.67599L16.6031 3.96008L15.8531 4.36792L16.0659 4.60844L15.2467 5.29689L14.94 5.25855L14.4914 5.66813L13.9807 5.72739L14.0233 5.78316C14.1119 5.89645 14.2361 6.10734 14.2006 6.191C14.2006 6.20146 14.1775 6.23283 14.0907 6.23109C13.7041 6.23109 12.7112 7.20363 12.6722 7.24372L12.5871 7.31867L13.4736 7.29775L12.3939 9.12084L11.947 9.09121L11.7485 9.54262L11.6545 9.38227L11.3407 9.3997L11.3141 8.93609L11.8956 7.60625L11.4701 7.6289L11.4577 7.64285C10.6215 8.57604 9.88149 9.58839 9.24844 10.6651L9.31582 10.7104L10.3797 9.41713C10.4522 9.38881 10.5287 9.37175 10.6066 9.36659C10.8158 9.35439 10.924 9.45547 10.9382 9.67508C10.9382 9.7204 11.4116 9.73085 11.7857 9.73957C11.5233 9.68902 11.2697 9.61931 11.2999 9.54088L11.8318 9.74131C11.9676 9.73752 12.1035 9.74569 12.2378 9.76571C12.2446 9.78925 12.2597 9.80964 12.2804 9.82323C12.2041 9.81103 12.0428 9.78663 11.8743 9.757L12.9063 10.1422L13.9027 11.0311L16.8176 11.472L15.6013 12.6136C15.6013 12.6328 15.7981 14.1927 15.424 15.2175C15.0694 16.1971 12.6917 17.309 12.7165 17.4328C12.6669 17.5408 11.0002 18.4367 10.658 18.6023C10.3158 18.7678 10.4116 19.2994 10.4488 19.4423C10.2715 19.5312 9.4754 19.9827 9.25376 20.5456C9.20766 20.6624 9.1527 20.7199 9.09241 20.7199C8.94702 20.7199 8.7378 20.4166 8.64915 20.2197L8.63674 20.1953L8.13142 20.2232L7.52858 19.6672L7.10127 20.2423L6.68992 20.3086V20.3905L6.77503 21.8667C7.02075 24.4061 7.79185 26.8692 9.041 29.105C10.9328 27.2436 8.63851 26.6894 8.63851 26.6894C8.63851 26.6894 7.66687 24.1918 9.09241 24.5107C10.518 24.8297 10.8903 23.3186 11.1385 23.0362L11.1988 24.9116C11.1988 24.9116 12.5782 24.2545 12.2201 25.5791C11.8619 26.9037 10.5339 25.729 10.6456 26.8602C10.7573 27.9913 12.197 28.7565 12.197 28.7565L11.3105 30.5691C11.3105 30.5691 11.2946 31.2976 11.2999 32.0157C10.7378 32.1482 10.2059 32.251 9.69348 32.3259C6.68814 28.8401 5.42041 24.9865 5.42041 20.0541C5.42157 15.5206 6.98494 11.1213 9.85566 7.57314C12.7264 4.02502 16.7351 1.53743 21.2284 0.515898C25.7217 -0.505635 30.4345 -0.000861176 34.5985 1.94793C38.7625 3.89672 42.1322 7.17459 44.1582 11.2472L43.3 11.5017L42.6298 11.0834Z" fill="#009FD3"/>
<path d="M15.674 36.1272C18.2644 37.9137 20.4204 38.3599 23.541 38.7241L23.6758 39.9999C19.7981 39.6008 17.0587 38.8026 14.1367 36.5716C14.411 36.4984 14.6917 36.42 14.9789 36.3363C15.2112 36.2684 15.4435 36.1987 15.674 36.1272Z" fill="#009FD3"/>
<path d="M2.14013 24.3555C2.19049 24.2862 2.25665 24.2295 2.33331 24.1898C2.40998 24.1502 2.49502 24.1287 2.58163 24.1272C2.714 24.1393 2.84064 24.1861 2.94834 24.2628C3.05603 24.3394 3.14083 24.443 3.1939 24.5628C3.24697 24.6826 3.26636 24.8143 3.25004 24.944C3.23372 25.0737 3.1823 25.1967 3.10114 25.3002C1.91142 26.7538 1.00716 28.4705 1.48411 30.3808C1.8139 31.7036 2.77489 32.6657 3.9788 33.281C5.29832 33.9304 6.75875 34.2546 8.23414 34.2256C9.19518 34.2179 10.1533 34.121 11.0959 33.9363C11.5923 33.8439 12.0817 33.7324 12.5639 33.6086C12.876 33.5284 13.1833 33.4436 13.4859 33.3542C16.0906 32.589 18.6491 31.6339 21.22 30.7677C21.2928 30.7418 21.3696 30.7282 21.447 30.7276C22.1083 30.7276 22.3335 31.8065 21.5817 32.0574C19.0108 32.9289 16.4523 33.877 13.8476 34.6422L13.7803 34.6631C13.2874 34.806 12.7891 34.9402 12.2838 35.0587C11.008 35.3761 9.69892 35.5457 8.38308 35.5642C8.16676 35.5642 7.94868 35.5642 7.73236 35.5467C4.64547 35.3724 1.05857 34.0548 0.193321 30.8095C-0.457392 28.3799 0.617079 26.2152 2.14013 24.3555Z" fill="#009FD3"/>
</svg>
